# xmcd
#
# Track frame offsets: 
#        150
#        20505
#        45372
#        65908
#        83500
#        107515
#        125699
#        141139
#        163830
#        190477
#        213071
#        234360
#        253150
#        273807
#
# Disc length: 3913 seconds
#
# Revision: 0
# Processed by: cddbd v1.5.2PL0 Copyright (c) Steve Scherf et al.
# Submitted via: ExactAudioCopyFreeDBPlugin 1.0
#
DISCID=bf0f470e
DTITLE=Dam Vinh Hung - Hung 6
DYEAR=1900
DGENRE=
TTITLE0=Hanoi cafe oi
TTITLE1=Mot dem em dem
TTITLE2=Duong xa uot mua
TTITLE3=My baby you
TTITLE4=Xin loi tinh yeu
TTITLE5=Trai tim con dau
TTITLE6=Ngan nam van doi
TTITLE7=Chen dang
TTITLE8=Sao doi ngoi
TTITLE9=Le da
TTITLE10=Hay nhin lai minh di
TTITLE11=Khong phai em
TTITLE12=Ve di thoi hoi em
TTITLE13=Tinh yeu con dau
EXTD=
EXTT0=
EXTT1=
EXTT2=
EXTT3=
EXTT4=
EXTT5=
EXTT6=
EXTT7=
EXTT8=
EXTT9=
EXTT10=
EXTT11=
EXTT12=
EXTT13=
PLAYORDER=
